<?xml version="1.0" encoding="UTF-8"?>
<svg width="18px" height="14px" viewBox="0 0 18 14" version="1.1" xmlns="http://www.w3.org/2000/svg" xmlns:xlink="http://www.w3.org/1999/xlink">
    <title>arrow-left</title>
    <defs>
        <filter id="filter-1">
            <feColorMatrix in="SourceGraphic" type="matrix" values="0 0 0 0 0.909804 0 0 0 0 0.729412 0 0 0 0 0.866667 0 0 0 1.000000 0"></feColorMatrix>
        </filter>
        <path d="M9.29289322,5.29289322 C9.68341751,4.90236893 10.3165825,4.90236893 10.7071068,5.29289322 C11.0976311,5.68341751 11.0976311,6.31658249 10.7071068,6.70710678 L10.7071068,6.70710678 L6.414,11 L20,11 C20.5128358,11 20.9355072,11.3860402 20.9932723,11.8833789 L21,12 C21,12.5522847 20.5522847,13 20,13 L20,13 L6.414,13 L10.7071068,17.2928932 C11.0675907,17.6533772 11.0953203,18.2206082 10.7902954,18.6128994 L10.7071068,18.7071068 C10.3165825,19.0976311 9.68341751,19.0976311 9.29289322,18.7071068 L9.29289322,18.7071068 L3.29289322,12.7071068 L3.29289322,12.7071068 L3.21968877,12.625449 C3.2173721,12.6225624 3.21507113,12.6196628 3.21278596,12.6167501 C3.20728448,12.6098424 3.20175344,12.602603 3.19633458,12.5953066 C3.17849009,12.5711307 3.1617187,12.546275 3.14606743,12.5206602 C3.13860692,12.5086131 3.13149883,12.4963944 3.12467117,12.4840621 C3.11379392,12.4642939 3.10337664,12.4438914 3.09365378,12.4230991 C3.08567905,12.4060985 3.07819642,12.3887956 3.07122549,12.371336 C3.06331574,12.3515792 3.05612249,12.3317977 3.04954668,12.3117364 C3.04472872,12.2968513 3.04009773,12.2814633 3.03584514,12.265993 C3.02983363,12.2444365 3.0246398,12.2227461 3.02016515,12.2007941 C3.01670217,12.1833753 3.01362808,12.165949 3.0110178,12.1484669 C3.00376119,12.1003621 3,12.0506203 3,12 L3.00396641,12.0892501 C3.00189498,12.0659949 3.00063489,12.042681 3.00018615,12.0193545 L3,12 C3,11.9935938 3.00006024,11.9872016 3.00018018,11.980824 C3.00059932,11.9579802 3.0018656,11.9343349 3.00396641,11.9107499 C3.00576612,11.890153 3.00811223,11.8705042 3.01101934,11.8510388 C3.01362808,11.834051 3.01670217,11.8166247 3.02024007,11.7992742 C3.0246398,11.7772539 3.02983363,11.7555635 3.03572097,11.7341604 C3.04009773,11.7185367 3.04472872,11.7031487 3.04973809,11.6878575 C3.05612249,11.6682023 3.06331574,11.6484208 3.07110396,11.6289415 C3.07819642,11.6112044 3.08567905,11.5939015 3.09367336,11.5767785 C3.10337664,11.5561086 3.11379392,11.5357061 3.12487577,11.515723 C3.13149883,11.5036056 3.13860692,11.4913869 3.14599545,11.4792912 C3.1617187,11.453725 3.17849009,11.4288693 3.19631351,11.4048407 C3.22531295,11.3656744 3.25749917,11.3282873 3.29289322,11.2928932 L3.21278596,11.3832499 C3.23766884,11.3515341 3.26442691,11.3213595 3.29289322,11.2928932 Z" id="path-2"></path>
    </defs>
    <g id="♻️-Symbols" stroke="none" stroke-width="1" fill="none" fill-rule="evenodd">
        <g id="arrow-left" transform="translate(-3.000000, -5.000000)" filter="url(#filter-1)">
            <g>
                <mask id="mask-3" fill="white">
                    <use xlink:href="#path-2"></use>
                </mask>
                <use id="Combined-Shape" fill="#000000" fill-rule="nonzero" xlink:href="#path-2"></use>
                <g id="Group" mask="url(#mask-3)" fill="#000000">
                    <g id="COLOR/-black">
                        <rect id="Rectangle" x="0" y="0" width="24" height="24"></rect>
                    </g>
                </g>
            </g>
        </g>
    </g>
</svg>