<svg xmlns="http://www.w3.org/2000/svg" xmlns:xlink="http://www.w3.org/1999/xlink" width="64" height="54" viewBox="0 0 64 54">
    <defs>
        <filter id="l8eooo9dla">
            <feColorMatrix in="SourceGraphic" values="0 0 0 0 0.223529 0 0 0 0 0.537255 0 0 0 0 0.603922 0 0 0 1.000000 0"/>
        </filter>
        <filter id="grwoa0pnab">
            <feColorMatrix in="SourceGraphic" values="0 0 0 0 0.223529 0 0 0 0 0.537255 0 0 0 0 0.603922 0 0 0 1.000000 0"/>
        </filter>
        <path id="f1oiariklc" d="M31.273 2.232c15.833 0 28.667 10.993 28.667 24.554 0 13.56-12.834 24.553-28.667 24.553-15.832 0-28.667-10.993-28.667-24.553S15.441 2.232 31.273 2.232zM18.38 29.018H7.961c1.077 8.341 8.116 15.143 17.386 17.21-3.964-5.105-6.371-11.013-6.967-17.21zm36.205 0H44.173c-.584 6.168-2.994 12.088-6.973 17.21 9.27-2.067 16.308-8.87 17.385-17.21zm-15.636 0H23.605c.655 6.056 3.317 11.826 7.668 16.628 4.368-4.82 7.034-10.607 7.676-16.628zM25.346 7.344l-.07.015c-9.235 2.086-16.24 8.875-17.315 17.195h10.412c.584-6.168 2.995-12.089 6.973-17.21zm5.927.582c-4.368 4.819-7.034 10.607-7.675 16.628H38.94c-.654-6.057-3.317-11.827-7.668-16.628zm5.926-.583l.246.32c3.817 5.032 6.138 10.822 6.721 16.89h10.419c-1.077-8.34-8.116-15.143-17.386-17.21z"/>
    </defs>
    <g fill="none" fill-rule="evenodd" filter="url(#l8eooo9dla)" transform="translate(-19 -19)">
        <g filter="url(#grwoa0pnab)" transform="translate(0 3)">
            <g transform="translate(19.657 16.071)">
                <mask id="eydxo3j1gd" fill="#fff">
                    <use xlink:href="#f1oiariklc"/>
                </mask>
                <use fill="#000" fill-rule="nonzero" xlink:href="#f1oiariklc"/>
                <g fill="#000" mask="url(#eydxo3j1gd)">
                    <path d="M0 0H62.546V53.571H0z"/>
                </g>
            </g>
        </g>
    </g>
</svg>
